<svg xmlns="http://www.w3.org/2000/svg" viewBox="0 0 3500 2000" width="3500" height="2000">
	<style>
		tspan { white-space:pre }
	</style>
	<path id="VulnX " fill="#000000" d="M558.4 1177L558.4 1181.2L552.8 1181.2L552.8 1177L558.4 1177ZM789.4 600.2Q785.2 604.4 778.2 615.6Q772.6 625.4 768.4 629.6Q772.6 618.4 783.8 597.4Q788 600.2 789.4 600.2ZM744.6 593.2L747.4 594.6L743.2 603L740.4 600.2L744.6 593.2ZM768.4 632.4Q765.6 633.8 761.4 645Q761.4 640.8 757.2 638Q762.8 632.4 768.4 632.4ZM785.2 685.6Q782.4 692.6 778.2 706.6Q776.8 706.6 772.6 708Q768.4 723.4 769.8 726.2Q768.4 723.4 764.2 723.4Q769.8 709.4 785.2 685.6ZM760 647.8Q750.2 664.6 726.4 698.2L716.6 685.6Q720.8 682.8 725 682.8Q727.8 682.8 726.4 685.6L726.4 689.8Q729.2 688.4 734.8 684.2L737.6 680Q739 677.2 739 674.4Q737.6 671.6 730.6 664.6L746 664.6Q747.4 657.6 751.6 645Q757.2 645 760 647.8ZM757.2 726.2L760 727.6L755.8 737.4L753 736L757.2 726.2ZM760 745.8L762.8 751.4L760 751.4L757.2 745.8L760 745.8ZM709.6 724.8L709.6 724.8ZM646.6 668.8L649.4 668.8L646.6 677.2L643.8 675.8L646.6 668.8ZM580.8 702.4L583.6 703.8L573.8 716.4L571 713.6L580.8 702.4ZM565.4 726.2L568.2 726.2L565.4 734.6L562.6 733.2L565.4 726.2ZM279.8 461.6Q279.8 454.6 271.4 468.6Q260.2 488.2 256 492.4L251.8 492.4Q236.4 492.4 236.4 479.8Q236.4 471.4 244.8 461.6Q254.6 451.8 263 451.8Q253.2 451.8 279.8 461.6ZM726.4 709.4L810.4 596L785.2 633.8Q785.2 636.6 792.2 636.6Q783.8 649.2 769.8 671.6Q768.4 671.6 764.2 674.4Q755.8 688.4 739 719.2Q740.4 720.6 743.2 720.6Q739 720.6 739 724.8Q739 722 737.6 719.2Q736.2 723.4 736.2 726.2Q736.2 730.4 739 733.2L670.4 857.8Q669 859.2 673.2 859.2Q684.4 859.2 727.8 771Q733.4 765.4 743.2 754.2Q740.4 764 730.6 780.8L730.6 789.2Q733.4 792 737.6 792Q730.6 792 755.8 785Q733.4 801.8 720.8 846.6Q715.2 857.8 702.6 881.6Q699.8 883 695.6 885.8Q695.6 888.6 699.8 888.6L614.4 1056.6L618.6 1056.6Q600.4 1053.8 600.4 1073.4Q600.4 1081.8 606 1081.8Q606 1079 608.8 1077.6Q611.6 1074.8 611.6 1073.4Q558.4 1203.6 461.8 1455.6Q457.6 1458.4 450.6 1465.4Q449.2 1469.6 446.4 1476.6Q445 1478 446.4 1479.4Q450.6 1482.2 450.6 1490.6Q450.6 1499 446.4 1501.8Q445 1506 449.2 1508.8Q445 1514.4 440.8 1536.8Q438 1539.6 435.2 1539.6Q429.6 1536.8 408.6 1521.4Q397.4 1532.6 393.2 1546.6Q387.6 1552.2 384.8 1552.2Q369.4 1552.2 361 1556.4Q356.8 1552.2 356.8 1549.4Q347 1555 347 1562Q347 1566.2 351.2 1580.2Q366.6 1595.6 366.6 1602.6Q366.6 1606.8 355.4 1618Q347 1633.4 342.8 1633.4Q319 1633.4 324.6 1601.2Q327.4 1585.8 320.4 1581.6Q319 1578.8 320.4 1576Q323.2 1571.8 323.2 1570.4Q320.4 1567.6 317.6 1567.6Q313.4 1573.2 303.6 1585.8Q295.2 1592.8 284 1592.8Q270 1592.8 253.2 1571.8Q253.2 1571.8 247.6 1556.4Q246.2 1552.2 242 1552.2Q239.2 1553.6 239.2 1562Q246.2 1560.6 219.6 1560.6Q219.6 1559.2 222.4 1555L222.4 1549.4Q216.8 1545.2 216.8 1535.4L216.8 1529.8Q212.6 1528.4 204.2 1524.2Q212.6 1522.8 212.6 1517.2Q212.6 1510.2 205.6 1500.4Q202.8 1497.6 194.4 1492Q193 1485 187.4 1472.4Q180.4 1465.4 172 1444.4Q170.6 1430.4 162.2 1381.4Q159.4 1367.4 152.4 1342.2Q151 1335.2 151 1331Q151 1326.8 152.4 1324Q145.4 1314.2 146.8 1301.6L142.6 1301.6Q141.2 1303 139.8 1303Q141.2 1303 144 1300.2Q131.4 1279.2 127.2 1263.8Q109 1196.6 93.6 1105.6L74 988Q68.4 955.8 65.6 923.6Q64.2 922.2 58.6 918Q50.2 887.2 37.6 829.8Q19.4 656.2 19.4 631Q19.4 633.8 23.6 589Q29.2 589 33.4 584.8Q41.8 596 41.8 618.4Q41.8 628.2 40.4 639.4L43.2 647.8Q41.8 664.6 44.6 674.4Q48.8 668.8 51.6 660.4Q53 643.6 58.6 612.8Q71.2 575 71.2 583.4Q71.2 544.2 48.8 544.2Q37.6 544.2 29.2 549.8Q36.2 537.2 48.8 537.2Q79.6 537.2 79.6 579.2L79.6 584.8Q78.2 587.6 82.4 587.6Q85.2 587.6 88 584.8Q90.8 580.6 95 580.6Q97.8 580.6 99.2 583.4Q100.6 584.8 100.6 579.2Q100.6 570.8 97.8 568Q95 559.6 88 545.6Q81 541.4 71.2 533L71.2 524.6Q71.2 521.8 72.6 516.2Q75.4 509.2 75.4 506.4Q86.6 492.4 97.8 492.4Q117.4 492.4 123 510.6L121.6 519L121.6 554L125.8 556.8Q134.2 552.6 134.2 535.8Q135.6 519 135.6 519Q145.4 519 155.2 485.4L167.8 472.8Q173.4 467.2 180.4 467.2Q183.2 467.2 184.6 468.6Q187.4 470 188.8 470Q190.2 477 190.2 484Q190.2 493.8 187.4 502.2Q195.8 514.8 215.4 535.8Q251.8 542.8 249 558.2Q250.4 559.6 253.2 559.6Q265.8 559.6 265.8 548.4Q265.8 544.2 261.6 535.8Q258.8 527.4 258.8 526L258.8 510.6L268.6 510.6Q272.8 510.6 278.4 513.4Q285.4 524.6 295.2 551.2Q298 591.8 296.6 615.6Q298 619.8 299.4 622.6Q296.6 636.6 299.4 654.8Q300.8 664.6 309.2 754.2Q309.2 755.6 312 757Q314.8 783.6 324.6 835.4Q326 856.4 334.4 891.4Q340 930.6 340 941.8Q340 944.6 337.2 950.2Q335.8 955.8 337.2 960Q338.6 972.6 342.8 992.2Q342.8 993.6 341.4 996.4Q342.8 1002 345.6 1011.8Q347 1013.2 347 1016Q347 1018.8 342.8 1020.2Q344.2 1023 348.4 1025.8Q348.4 1080.4 359.6 1093Q359.6 1095.8 351.2 1100Q351.2 1105.6 352.6 1111.2L352.6 1119.6Q358.2 1123.8 359.6 1121Q370.8 1095.8 382 1073.4L382 1063.6Q382 1066.4 394.6 1045.4L433.8 962.8Q438 962.8 442.2 961.4Q442.2 958.6 440.8 954.4Q447.8 939 463.2 908.2L475.8 902.6Q474.4 899.8 468.8 899.8Q468.8 898.4 470.2 895.6Q473 891.4 473 888.6Q474.4 888.6 477.2 890Q481.4 891.4 482.8 891.4L485.6 887.2Q485.6 881.6 480 881.6Q484.2 874.6 494 859.2Q495.4 852.2 517.8 825.6Q524.8 806 548.6 764Q557 757 573.8 738.8Q607.4 678.6 659.2 601.6Q659.2 610 656.4 614.2L583.6 734.6L583.6 737.4Q590.6 733.2 606 708Q613 696.8 631.2 671.6Q632.6 664.6 662 611.4Q657.8 611.4 669 618.4Q659.2 633.8 638.2 667.4Q634 675.8 632.6 684.2L627 689.8Q620 701 607.4 729Q625.6 712.2 627 699.6Q634 695.4 649.4 681.4Q643.8 702.4 631.2 740.2Q625.6 744.4 617.2 752.8Q590.6 803.2 534.6 902.6Q536 904 540.2 904L559.8 873.2Q599 813 615.8 787.8Q622.8 779.4 646.6 748.6Q643.8 748.6 635.4 747.2Q648 720.6 673.2 674.4Q688.6 653.4 705.4 622.6L771.2 544.2L771.2 549.8Q741.8 589 698.4 656.2Q690 661.8 677.4 687Q660.6 720.6 657.8 724.8Q656.4 726.2 657.8 727.6Q666.2 716.4 685.8 692.6Q685.8 692.6 684.4 691.2Q694.2 677.2 706.8 650.6Q709.6 649.2 713.8 645Q723.6 629.6 741.8 605.8Q733.4 610 733.4 617Q733.4 622.6 739 628.2L656.4 762.6Q663.4 757 677.4 743Q655 769.6 657.8 769.6Q660.6 768.2 656.4 764Q652.2 775.2 643.8 796.2L648 796.2Q650.8 794.8 656.4 789.2Q656.4 785 657.8 780.8Q664.8 772.4 680.2 759.8Q683 758.4 687.2 758.4Q687.2 764 695.6 737.4L705.4 738.8Q708.2 736 711 736Q706.8 727.6 702.6 727.6Q698.4 727.6 697 729Q697 730.4 695.6 730.4Q701.2 717.8 713.8 694Q716.6 696.8 719.4 696.8Q716.6 705.2 711 717.8Q709.6 719.2 713.8 719.2Q726.4 719.2 725 702.4Q725 706.6 726.4 709.4ZM629.8 720.6L632.6 713.6L629.8 713.6L627 719.2L629.8 720.6ZM655 778L657.8 772.4L655 771L652.2 776.6L655 778ZM642.4 792L646.6 782.2L643.8 782.2L639.6 792L642.4 792ZM678.8 824.2L676 815.8Q671.8 817.2 663.4 836.8Q667.6 831.2 678.8 824.2ZM235 556.8Q223.8 548.4 222.4 548.4Q219.6 548.4 219.6 549.8Q221 551.2 218.2 551.2Q215.4 551.2 215.4 549.8Q216.8 547 214 547L208.4 547Q207 548.4 205.6 548.4L205.6 556.8Q208.4 556.8 211.2 555.4L218.2 555.4Q244.8 555.4 235 556.8ZM205.6 570.8L226.6 570.8L226.6 566.6L205.6 566.6L205.6 570.8ZM204.2 583.4L209.8 580.6L208.4 577.8L204.2 580.6L204.2 583.4ZM541.6 906.8L533.2 906.8L526.2 927.8Q530.4 919.4 541.6 906.8ZM520.6 944.6L524.8 927.8L522 927.8L517.8 944.6L520.6 944.6ZM601.8 1090.2Q590.6 1095.8 590.6 1097.2Q593.4 1100 596.2 1100Q592 1100 601.8 1090.2ZM575.2 1135L580.8 1129.4L578 1128L573.8 1133.6L575.2 1135ZM43.2 689.8L46 677.2L41.8 677.2L40.4 689.8L43.2 689.8ZM310.6 960L313.4 951.6L310.6 951.6L307.8 958.6L310.6 960ZM323.2 976.8L326 971.2L323.2 969.8L320.4 975.4L323.2 976.8ZM324.6 997.8L328.8 997.8L328.8 985.2L324.6 985.2L324.6 997.8ZM41.8 730.4L46 730.4L46 713.6L41.8 713.6L41.8 730.4ZM358.2 1125.2L355.4 1125.2Q354 1126.6 351.2 1126.6Q349.8 1126.6 347 1122.4L347 1116.8Q347 1097.2 337.2 1028.6Q326 1035.6 326 1045.4Q326 1051 331.6 1090.2L341.4 1158.8Q344.2 1151.8 358.2 1125.2ZM1069.4 860.6L1065.2 888.6L1051.2 927.8Q1035.8 976.8 1033 988Q1031.6 997.8 1030.2 1017.4Q1024.6 1039.8 1013.4 1049.6Q1006.4 1007.6 1010.6 981Q1013.4 968.4 1021.8 941.8Q1030.2 915.2 1031.6 905.4Q1037.2 888.6 1051.2 859.2Q1052.6 862 1056.8 866.2Q1062.4 860.6 1069.4 860.6ZM1332.6 1464Q1328.4 1462.6 1317.2 1464Q1306 1464 1301.8 1464Q1299 1464 1285 1441.6Q1272.4 1419.2 1271 1417.8Q1261.2 1423.4 1259.8 1429Q1258.4 1436 1271 1452.8Q1268.2 1462.6 1271 1472.4Q1268.2 1487.8 1254.2 1487.8Q1250 1487.8 1247.2 1486.4Q1245.8 1485 1244.4 1485Q1241.6 1487.8 1240.2 1492Q1240.2 1494.8 1241.6 1496.2L1234.6 1489.2Q1224.8 1489.2 1223.4 1497.6L1222 1510.2Q1217.8 1510.2 1210.8 1507.4Q1203.8 1504.6 1198.2 1504.6Q1202.4 1510.2 1208 1521.4L1206.6 1532.6L1195.4 1532.6Q1188.4 1514.4 1173 1478Q1149.2 1485 1142.2 1486.4Q1122.6 1486.4 1124 1415Q1124 1405.2 1125.4 1342.2Q1124 1345 1119.8 1350.6Q1105.8 1356.2 1083.4 1367.4Q1024.6 1388.4 996.6 1389.8L960.2 1391.2Q947.6 1391.2 918.2 1377.2Q912.6 1374.4 904.2 1368.8Q835.6 1339.4 810.4 1247Q790.8 1170 804.8 1079Q806.2 1070.6 807.6 1052.4Q810.4 1034.2 811.8 1023Q814.6 1006.2 866.4 864.8Q886 813 909.8 794.8Q911.2 806 915.4 824.2Q916.8 822.8 937.8 796.2Q954.6 772.4 964.4 772.4Q970 772.4 977 775.2Q978.4 778 979.8 782.2L978.4 792Q979.8 797.6 984 810.2Q992.4 831.2 1010.6 829.8Q999.4 831.2 1040 817.2Q1041.4 822.8 1040 836.8Q1037.2 852.2 1030.2 873.2Q1028.8 877.4 1030.2 883Q1023.2 916.6 1007.8 974Q1003.6 988 1005 999.2L1006.4 1003.4Q992.4 1083.2 995.2 1123.8Q999.4 1188.2 1038.6 1248.4L1037.2 1251.2Q1045.6 1252.6 1056.8 1259.6Q1058.2 1262.4 1061 1262.4Q1066.6 1262.4 1119.8 1230.2Q1124 1230.2 1126.8 1234.4Q1119.8 1245.6 1114.2 1248.4Q1115.6 1249.8 1119.8 1251.2Q1119.8 1259.6 1135.2 1268Q1140.8 1249.8 1146.4 1213.4Q1143.6 1206.4 1143.6 1205L1149.2 1198Q1159 1102.8 1219.2 933.4Q1237.4 883 1276.6 792L1283.6 799Q1276.6 815.8 1268.2 839.6L1264 860.6Q1262.6 863.4 1268.2 863.4Q1279.4 863.4 1292 838.2Q1306 813 1307.4 813Q1313 813 1315.8 814.4L1317.2 815.8L1327 790.6Q1325.6 800.4 1327 813Q1335.4 808.8 1343.8 785L1357.8 779.4Q1371.8 793.4 1370.4 794.8Q1376 794.8 1374.6 793.4Q1374.6 792 1377.4 792Q1381.6 792 1385.8 801.8Q1390 811.6 1392.8 813Q1391.4 817.2 1381.6 831.2Q1377.4 839.6 1381.6 849.4Q1380.2 850.8 1383 853.6Q1391.4 850.8 1406.8 836.8L1405.4 841Q1406.8 842.4 1409.6 848Q1405.4 859.2 1402.6 873.2Q1399.8 892.8 1398.4 918L1401.2 919.4Q1402.6 913.8 1408.2 909.6Q1405.4 919.4 1362 1088.8Q1342.4 1168.6 1338.2 1230.2Q1336.8 1245.6 1327 1294.6Q1325.6 1298.8 1329.8 1304.4L1328.4 1314.2Q1325.6 1315.6 1321.4 1315.6Q1317.2 1315.6 1314.4 1312.8L1304.6 1314.2Q1280.8 1443 1332.6 1464ZM1702.2 705.2L1700.8 719.2L1695.2 719.2L1696.6 705.2L1702.2 705.2ZM1696.6 759.8L1695.2 773.8L1689.6 772.4L1691 758.4L1696.6 759.8ZM1506.2 768.2L1503.4 790.6L1499.2 789.2L1500.6 768.2L1506.2 768.2ZM1496.4 810.2L1500.6 810.2L1497.8 828.4L1493.6 827L1496.4 810.2ZM1727.4 1209.2L1726 1224.6Q1719 1230.2 1674.2 1254Q1677 1259.6 1678.4 1259.6Q1684 1259.6 1688.2 1255.4Q1686.8 1259.6 1686.8 1261Q1684 1262.4 1689.6 1262.4Q1693.8 1262.4 1695.2 1258.2Q1699.4 1266.6 1698 1276.4Q1696.6 1286.2 1693.8 1289Q1670 1297.4 1639.2 1324Q1637.8 1324 1633.6 1321.2Q1629.4 1318.4 1626.6 1318.4Q1619.6 1317 1602.8 1328.2L1601.4 1336.6Q1591.6 1340.8 1584.6 1346.4Q1581.8 1347.8 1587.4 1347.8Q1593 1349.2 1605.6 1343.6Q1597.2 1346.4 1583.2 1350.6Q1579 1356.2 1572 1364.6Q1563.6 1363.2 1546.8 1364.6Q1531.4 1373 1517.4 1378.6Q1499.2 1389.8 1493.6 1402.4Q1495 1395.4 1489.4 1387Q1479.6 1394 1479.6 1402.4Q1478.2 1409.4 1481 1413.6L1475.4 1406.6Q1468.4 1413.6 1455.8 1430.4Q1454.4 1427.6 1450.2 1422Q1437.6 1422 1436.2 1434.6Q1434.8 1447.2 1434.8 1455.6L1434.8 1459.8L1425 1459.8Q1425 1455.6 1427.8 1451.4L1427.8 1441.6Q1429.2 1437.4 1426.4 1429L1404 1447.2Q1385.8 1445.8 1377.4 1427.6L1369 1434.6Q1369 1427.6 1364.8 1422Q1363.4 1423.4 1362 1426.2Q1360.6 1429 1359.2 1430.4Q1359.2 1424.8 1366.2 1410.8L1362 1408Q1357.8 1413.6 1352.2 1420.6Q1352.2 1416.4 1356.4 1399.6Q1357.8 1382.8 1348 1382.8Q1343.8 1381.4 1332.6 1385.6Q1332.6 1389.8 1334 1392.6L1341 1388.4Q1345.2 1388.4 1334 1398.2Q1334 1389.8 1327 1382.8Q1327 1381.4 1324.2 1384.2Q1324.2 1391.2 1324.2 1405.2Q1322.8 1396.8 1324.2 1385.6Q1322.8 1384.2 1317.2 1384.2Q1314.4 1384.2 1313 1387Q1311.6 1388.4 1310.2 1388.4Q1313 1387 1313 1384.2Q1314.4 1381.4 1315.8 1380Q1310.2 1373 1303.2 1366L1315.8 1374.4Q1318.6 1371.6 1313 1364.6L1341 1328.2Q1339.6 1326.8 1334 1326.8Q1342.4 1326.8 1303.2 1335.2Q1317.2 1328.2 1343.8 1314.2Q1343.8 1311.4 1343.8 1305.8Q1346.6 1303 1362 1277.8Q1364.8 1275 1377.4 1265.2Q1391.4 1255.4 1391.4 1247Q1399.8 1244.2 1408.2 1235.8Q1486.6 1069.2 1530 797.6L1534.2 726.2Q1511.8 859.2 1509 880.2Q1489.4 968.4 1464.2 1030Q1504.8 821.4 1509 768.2L1511.8 773.8Q1513.2 771 1513.2 766.8Q1514.6 764 1513.2 761.2Q1504.8 768.2 1504.8 764Q1504.8 762.6 1506.2 758.4Q1509 752.8 1509 748.6L1517.4 530.2Q1518.8 485.4 1534.2 454.6L1534.2 449Q1538.4 446.2 1546.8 442Q1548.2 436.4 1548.2 435L1551 435Q1553.8 435 1555.2 435Q1555.2 437.8 1558 443.4L1546.8 675.8Q1551 660.4 1560.8 562.4L1559.4 500.8Q1562.2 478.4 1570.6 450.4Q1572 456 1574.8 464.4Q1583.2 457.4 1584.6 435Q1594.4 440.6 1600 440.6Q1602.8 437.8 1609.8 429.4L1609.8 440.6Q1614 442 1629.4 443.4Q1639.2 444.8 1639.2 440.6Q1637.8 447.6 1640.6 453.2Q1640.6 446.2 1647.6 435Q1654.6 423.8 1660.2 425.2L1660.2 433.6Q1650.4 439.2 1647.6 444.8L1649 454.6Q1660.2 450.4 1674.2 432.2L1671.4 454.6Q1671.4 468.6 1689.6 470Q1684 482.6 1682.6 492.4Q1681.2 509.2 1684 586.2L1681.2 611.4Q1679.8 625.4 1686.8 629.6L1672.8 761.2Q1658.8 902.6 1583.2 1160.2Q1583.2 1163 1577.6 1175.6Q1574.8 1179.8 1576.2 1181.2Q1580.4 1178.4 1586 1179.8Q1588.8 1181.2 1597.2 1192.4L1604.2 1192.4Q1612.6 1184 1614 1174.2Q1614 1175.6 1616.8 1181.2Q1622.4 1181.2 1623.8 1175.6Q1619.6 1184 1600 1196.6Q1612.6 1199.4 1619.6 1199.4Q1653.2 1186.8 1658.8 1186.8Q1663 1186.8 1668.6 1193.8Q1674.2 1199.4 1675.6 1199.4Q1678.4 1200.8 1681.2 1196.6Q1684 1192.4 1686.8 1193.8Q1702.2 1195.2 1727.4 1209.2ZM1486.6 877.4L1485.2 884.4L1482.4 884.4L1483.8 876L1486.6 877.4ZM1695.2 1178.4L1695.2 1185.4L1689.6 1185.4L1691 1177L1695.2 1178.4ZM1670 1177L1672.8 1179.8L1665.8 1189.6L1663 1185.4L1670 1177ZM1455.8 1025.8L1461.4 1027.2L1457.2 1037L1453 1035.6L1455.8 1025.8ZM1643.4 1349.2L1656 1352Q1654.6 1352 1650.4 1354.8Q1647.6 1356.2 1643.4 1354.8L1626.6 1353.4Q1633.6 1347.8 1643.4 1349.2ZM1618.2 1336.6L1618.2 1342.2L1611.2 1343.6L1611.2 1339.4L1618.2 1336.6ZM1436.2 1107L1446 1108.4Q1441.8 1125.2 1419.4 1167.2Q1409.6 1179.8 1401.2 1196.6Q1412.4 1165.8 1436.2 1107ZM1565 1385.6Q1542.6 1398.2 1518.8 1417.8Q1524.4 1429 1535.6 1430.4Q1538.4 1431.8 1541.2 1430.4L1541.2 1427.6Q1539.8 1440.2 1538.4 1438.8Q1537 1437.4 1531.4 1438.8L1527.2 1440.2Q1518.8 1431.8 1523 1431.8Q1517.4 1427.6 1496.4 1424.8Q1530 1401 1565 1385.6ZM1380.2 1251.2L1383 1252.6L1378.8 1258.2L1376 1256.8L1380.2 1251.2ZM1345.2 1408L1343.8 1420.6L1339.6 1419.2L1341 1406.6L1345.2 1408ZM1520.2 664.6L1527.2 530.2Q1524.4 528.8 1517.4 576.4Q1523 635.2 1520.2 664.6ZM1719 1228.8L1723.2 1217.6L1719 1217.6L1714.8 1228.8L1719 1228.8ZM1574.8 1160.2L1583.2 1140.6L1579 1140.6L1572 1160.2L1574.8 1160.2ZM1569.2 1181.2L1577.6 1165.8L1574.8 1165.8L1566.4 1178.4L1569.2 1181.2ZM1572 1200.8L1591.6 1191L1588.8 1185.4L1572 1195.2L1572 1200.8ZM1553.8 1359L1563.6 1360.4L1565 1354.8L1555.2 1354.8L1553.8 1359ZM1349.4 1378.6Q1345.2 1363.2 1346.6 1353.4Q1343.8 1356.2 1335.4 1375.8Q1346.6 1375.8 1349.4 1378.6ZM1334 1366L1338.2 1359L1335.4 1356.2L1331.2 1364.6L1334 1366ZM1374.6 1426.2L1378.8 1415L1373.2 1413.6L1370.4 1426.2L1374.6 1426.2ZM1903.8 1466.8L1905.2 1469.6L1896.8 1472.4L1896.8 1469.6L1903.8 1466.8ZM2412 901.2L2412 906.8L2407.8 906.8L2407.8 901.2L2412 901.2ZM2414.8 927.8L2414.8 974L2410.6 974L2410.6 927.8L2414.8 927.8ZM2414.8 976.8L2414.8 986.6L2410.6 986.6L2410.6 976.8L2414.8 976.8ZM2587 1254L2592.6 1255.4L2585.6 1266.6L2582.8 1262.4L2587 1254ZM2414.8 995L2414.8 1004.8L2410.6 1004.8L2410.6 995L2414.8 995ZM2494.6 1310Q2487.6 1317 2469.4 1331Q2466.6 1326.8 2468 1325.4Q2470.8 1322.6 2494.6 1310ZM2427.4 1325.4L2428.8 1328.2L2421.8 1289L2421.8 1286.2L2427.4 1325.4ZM2560.4 1266.6L2561.8 1275Q2573 1270.8 2578.6 1263.8Q2549.2 1291.8 2497.4 1305.8L2497.4 1308.6Q2515.6 1338 2549.2 1315.6Q2542.2 1325.4 2525.4 1300.2L2528.2 1304.4Q2535.2 1301.6 2546.4 1335.2Q2538 1303 2538 1307.2Q2533.8 1310 2526.8 1311.4Q2430.2 1394 2407.8 1394Q2403.6 1394 2402.2 1392.6L2396.6 1392.6Q2402.2 1392.6 2381.2 1406.6Q2349 1427.6 2319.6 1427.6L2305.6 1427.6Q2329.4 1416.4 2354.6 1389.8Q2344.8 1396.8 2322.4 1409.4Q2301.4 1416.4 2265 1429Q2269.2 1434.6 2272 1434.6Q2267.8 1437.4 2260.8 1437.4Q2260.8 1434.6 2265 1431.8Q2260.8 1430.4 2241.2 1423.4Q2224.4 1426.2 2192.2 1415Q2190.8 1398.2 2167 1373Q2143.2 1346.4 2143.2 1336.6Q2146 1343.6 2153 1353.4L2221.6 1013.2Q2223 1009 2223 1006.2Q2223 995 2211.8 989.4Q2209 989.4 2206.2 993.6Q2202 1018.8 2193.6 1070.6Q2195 1048.2 2199.2 997.8L2193.6 995Q2181 1004.8 2182.4 1017.4Q2182.4 1016 2179.6 1011.8Q2113.8 1045.4 2104 1072L2078.8 1140.6Q2049.4 1240 2043.8 1318.4L2046.6 1331Q2038.2 1357.6 2027 1410.8Q2024.2 1403.8 2018.6 1364.6Q2018.6 1368.8 2017.2 1374.4Q2018.6 1384.2 2017.2 1413.6Q2014.4 1410.8 2008.8 1409.4L2004.6 1413.6Q1994.8 1409.4 1990.6 1392.6Q1986.4 1375.8 1986.4 1375.8Q1985 1377.2 1985 1381.4Q1983.6 1378.6 1975.2 1373Q1969.6 1378.6 1968.2 1381.4Q1968.2 1412.2 1969.6 1468.2Q1966.8 1466.8 1961.2 1461.2L1952.8 1469.6Q1948.6 1450 1937.4 1413.6Q1934.6 1417.8 1934.6 1426.2L1934.6 1387Q1927.6 1375.8 1926.2 1368.8Q1916.4 1389.8 1916.4 1409.4Q1916.4 1399.6 1926.2 1448.6Q1920.6 1447.2 1902.4 1431.8Q1896.8 1413.6 1896.8 1391.2Q1895.4 1395.4 1885.6 1406.6Q1864.6 1342.2 1864.6 1333.8Q1864.6 1286.2 1885.6 1186.8Q1892.6 1150.4 1892.6 1157.4Q1847.8 1256.8 1853.4 1360.4Q1856.2 1363.2 1859 1363.2Q1852 1363.2 1852 1370.2Q1847.8 1357.6 1847.8 1336.6Q1847.8 1265.2 1877.2 1184Q1896.8 1130.8 1923.4 1048.2Q1924.8 1045.4 1922 1045.4Q1934.6 1024.4 1934.6 985.2Q1933.2 985.2 1933.2 988Q1944.4 930.6 1944.4 906.8Q1944.4 897 1923.4 873.2Q1917.8 877.4 1917.8 880.2Q1917.8 870.4 1908 870.4L1856.2 884.4Q1859 883 1866 877.4Q1857.6 877.4 1843.6 880.2Q1831 883 1825.4 883Q1821.2 883 1818.4 881.6Q1814.2 867.6 1798.8 862Q1836.6 859.2 1826.8 859.2Q1807.2 859.2 1810 860.6Q1807.2 857.8 1801.6 855L1801.6 841Q1803 838.2 1810 831.2Q1812.8 829.8 1812.8 828.4Q1810 824.2 1801.6 831.2Q1803 822.8 1797.4 820Q1804.4 813 1818.4 796.2Q1817 797.6 1822.6 797.6Q1877.2 748.6 1944.4 733.2Q1997.6 733.2 2074.6 787.8Q2084.4 806 2108.2 845.2Q2112.4 843.8 2116.6 839.6Q2113.8 846.6 2113.8 853.6Q2119.4 849.4 2175.4 825.6Q2195 808.8 2213.2 808.8Q2218.8 808.8 2225.8 811.6Q2232.8 814.4 2238.4 814.4Q2241.2 814.4 2242.6 811.6Q2244 808.8 2246.8 808.8Q2249.6 808.8 2256.6 806Q2265 801.8 2267.8 801.8Q2265 801.8 2286 813Q2287.4 813 2290.2 807.4Q2294.4 800.4 2288.8 792Q2294.4 789.2 2281.8 785Q2286 783.6 2309.8 783.6Q2322.4 783.6 2354.6 787.8Q2370 800.4 2378.4 834Q2382.6 834 2391 838.2L2391 846.6Q2381.2 839.6 2382.6 839.6Q2382.6 842.4 2386.8 863.4Q2391 878.8 2391 958.6Q2391 971.2 2386.8 1072Q2382.6 1097.2 2378.4 1129.4L2378.4 1144.8Q2386.8 1144.8 2400.8 1130.8Q2391 1174.2 2372.8 1202.2Q2371.4 1205 2377 1205Q2379.8 1205 2370 1223.2Q2361.6 1241.4 2560.4 1266.6ZM2371.4 1380L2372.8 1381.4L2367.2 1388.4L2364.4 1385.6L2371.4 1380ZM1819.8 775.2L1822.6 776.6L1814.2 785L1811.4 783.6L1819.8 775.2ZM1779.2 814.4L1782 818.6L1766.6 829.8L1765.2 827L1779.2 814.4ZM1770.8 864.8L1773.6 873.2L1769.4 873.2L1765.2 866.2L1770.8 864.8ZM1896.8 1164.4L1896.8 1171.4L1892.6 1171.4L1892.6 1164.4L1896.8 1164.4ZM2060.6 1182.6Q2076 1123.8 2043.8 1227.4Q2036.8 1273.6 2011.6 1357.6Q2007.4 1331 2007.4 1338Q2007.4 1324 2013 1304.4Q2014.4 1301.6 2020 1298.8L2028.4 1266.6Q2028.4 1265.2 2027 1263.8Q2022.8 1268 2022.8 1272.2Q2025.6 1262.4 2022.8 1248.4Q2024.2 1248.4 2028.4 1254Q2028.4 1256.8 2038.2 1228.8Q2038.2 1219 2045.2 1203.6Q2045.2 1202.2 2048 1199.4Q2045.2 1198 2043.8 1198Q2056.4 1160.2 2069 1129.4Q2067.6 1107 2060.6 1182.6ZM2036.8 1413.6L2039.6 1420.6L2035.4 1420.6L2031.2 1415L2036.8 1413.6ZM1899.6 1364.6L1899.6 1388.4L1895.4 1388.4L1895.4 1364.6L1899.6 1364.6ZM1940.2 1434.6L1945.8 1455.6L1941.6 1455.6L1936 1434.6L1940.2 1434.6ZM1871.6 1380L1871.6 1398.2L1867.4 1398.2L1867.4 1380L1871.6 1380ZM1839.4 1448.6L1845 1452.8L1840.8 1454.2L1836.6 1451.4L1839.4 1448.6ZM2307 792L2319.6 792L2319.6 787.8L2307 787.8L2307 792ZM2295.8 803.2L2305.6 797.6L2302.8 792L2294.4 799L2295.8 803.2ZM2350.4 862L2354.6 862L2354.6 853.6L2350.4 853.6L2350.4 862ZM2351.8 880.2L2356 880.2L2356 867.6L2351.8 867.6L2351.8 880.2ZM2595.4 1255.4L2603.8 1247L2601 1242.8L2592.6 1252.6L2595.4 1255.4ZM2232.8 818.6Q2227.2 815.8 2210.4 815.8L2207.6 824.2L2218.8 828.4Q2223 827 2232.8 818.6ZM2207.6 815.8Q2190.8 820 2185.2 824.2Q2189.4 824.2 2190.8 825.6L2188 828.4Q2200.6 822.8 2207.6 815.8ZM2508.6 1259.6L2518.4 1251.2L2515.6 1249.8L2505.8 1256.8L2508.6 1259.6ZM2179.6 841L2185.2 838.2L2183.8 834L2179.6 836.8L2179.6 841ZM2501.6 1230.2Q2494.6 1235.8 2480.6 1247Q2465.2 1263.8 2440 1294.6Q2444.2 1294.6 2449.8 1291.8Q2468 1273.6 2501.6 1230.2ZM2118 859.2L2155.8 853.6L2125 848L2116.6 855L2118 859.2ZM2087.2 857.8L2092.8 857.8L2092.8 845.2L2087.2 845.2L2087.2 857.8ZM2413.4 1303L2420.4 1293.2L2414.8 1290.4L2409.2 1300.2L2413.4 1303ZM2386.8 1310L2393.8 1303L2391 1301.6L2385.4 1307.2L2386.8 1310ZM2384 1370.2L2391 1367.4L2389.6 1363.2L2384 1367.4L2384 1370.2ZM2374.2 1381.4L2381.2 1373L2379.8 1371.6L2371.4 1378.6L2374.2 1381.4ZM1944.4 969.8L1948.6 969.8L1948.6 958.6L1944.4 958.6L1944.4 969.8ZM2346.2 1430.4L2353.2 1427.6L2351.8 1424.8L2346.2 1427.6L2346.2 1430.4ZM1944.4 995L1944.4 974Q1937.4 1011.8 1937.4 1025.8Q1945.8 997.8 1944.4 995ZM2057.8 1128L2062 1108.4L2057.8 1108.4L2055 1128L2057.8 1128ZM2143.2 1263.8L2146 1248.4L2141.8 1248.4L2139 1263.8L2143.2 1263.8ZM1934.6 1052.4L1940.2 1032.8L1936 1032.8L1930.4 1052.4L1934.6 1052.4ZM2136.2 1315.6L2140.4 1315.6L2140.4 1291.8L2136.2 1291.8L2136.2 1315.6ZM2039.6 1191L2042.4 1179.8L2038.2 1179.8L2035.4 1191L2039.6 1191ZM2139 1333.8L2143.2 1333.8L2143.2 1324L2139 1324L2139 1333.8ZM1922 1093Q1902.4 1132.2 1902.4 1140.6L1902.4 1151.8Q1909.4 1130.8 1922 1093ZM1899.6 1164.4L1903.8 1151.8L1898.2 1151.8L1895.4 1164.4L1899.6 1164.4ZM1896.8 1149L1905.2 1122.4L1899.6 1122.4L1892.6 1149L1896.8 1149ZM1850.6 964.2Q1829.6 988 1798.8 1018.8Q1791.8 1016 1783.4 1018.8Q1777.8 1025.8 1772.2 1025.8L1770.8 1025.8Q1756.8 1024.4 1768 992.2Q1779.2 958.6 1800.2 958.6Q1811.4 940.4 1838 915.2Q1845 912.4 1847.8 912.4Q1852 912.4 1856.2 940.4Q1853.4 944.6 1850.6 954.4Q1852 957.2 1850.6 964.2ZM3435.4 418.2L3439.6 419.6L3424.2 437.8L3421.4 435L3435.4 418.2ZM3417.2 512L3420 513.4L3417.2 520.4L3414.4 519L3417.2 512ZM3439.6 545.6L3439.6 556.8L3435.4 556.8L3435.4 545.6L3439.6 545.6ZM3407.4 598.8Q3404.6 601.6 3401.8 605.8L3401.8 608.6Q3400.4 593.2 3401.8 590.4Q3408.8 594.6 3407.4 598.8ZM3393.4 611.4L3390.6 614.2Q3387.8 617 3386.4 617L3390.6 621.2Q3390.6 628.2 3382.2 632.4Q3386.4 626.8 3383.6 624L3372.4 633.8Q3372.4 638 3379.4 638Q3379.4 640.8 3368.2 650.6L3372.4 645L3372.4 639.4Q3368.2 642.2 3359.8 649.2Q3369.6 635.2 3393.4 611.4ZM3389.2 708L3392 709.4L3380.8 720.6L3379.4 717.8L3389.2 708ZM3154 618.4L3156.8 619.8L3148.4 628.2L3145.6 626.8L3154 618.4ZM3141.4 632.4L3141.4 636.6L3134.4 636.6L3134.4 632.4L3141.4 632.4ZM3130.2 636.6L3133 639.4L3127.4 645L3124.6 642.2L3130.2 636.6ZM2785.8 400L2785.8 408.4Q2785.8 411.2 2780.2 411.2Q2766.2 411.2 2748 402.8Q2731.2 394.4 2731.2 381.8Q2743.8 366.4 2750.8 366.4Q2753.6 366.4 2759.2 369.2Q2766.2 370.6 2770.4 370.6Q2785.8 388.8 2785.8 400ZM3175 915.2L3177.8 916.6L3169.4 925L3166.6 923.6L3175 915.2ZM3480.2 416.8Q3473.2 439.2 3441 479.8Q3408.8 519 3400.4 540Q3393.4 547 3387.8 559.6Q3355.6 580.6 3352.8 601.6Q3382.2 587.6 3378 576.4Q3378 580.6 3380.8 590.4L3382.2 590.4Q3386.4 601.6 3373.8 615.6Q3319.2 677.2 3259 738.8L3259 741.6L3315 691.2Q3319.2 687 3330.4 687Q3331.8 682.8 3336 675.8Q3336 680 3338.8 682.8L3348.6 673L3341.6 678.6L3345.8 682.8Q3348.6 682.8 3348.6 684.2Q3347.2 687 3341.6 692.6L3345.8 696.8Q3372.4 670.2 3403.2 632.4L3446.6 579.2Q3446.6 580.6 3448 586.2Q3450.8 591.8 3450.8 594.6L3422.8 653.4Q3399 682.8 3354.2 734.6L3357 738.8Q3361.2 736 3375.2 727.6Q3361.2 740.2 3330.4 766.8Q3333.2 762.6 3330.4 759.8Q3327.6 761.2 3320.6 768.2Q3323.4 769.6 3324.8 769.6Q3305.2 797.6 3232.4 850.8Q3224 857.8 3183.4 892.8Q3159.6 922.2 3120.4 957.2Q3119 961.4 3121.8 961.4Q3096.6 983.8 3047.6 1028.6Q3047.6 1031.4 3046.2 1035.6Q3005.6 1069.2 3005.6 1079Q3005.6 1072 3008.4 1083.2Q3012.6 1116.8 3061.6 1217.6Q3099.4 1296 3203 1408Q3222.6 1424.8 3263.2 1457Q3264.6 1458.4 3264.6 1475.2Q3260.4 1478 3257.6 1478Q3254.8 1478 3236.6 1466.8Q3235.2 1465.4 3235.2 1469.6Q3235.2 1479.4 3245 1487.8Q3243.6 1490.6 3249.2 1490.6Q3250.6 1490.6 3250.6 1487.8Q3249.2 1493.4 3252 1499L3243.6 1499Q3239.4 1497.6 3224 1485Q3212.8 1476.6 3203 1478Q3208.6 1487.8 3222.6 1507.4L3240.8 1525.6Q3231 1524.2 3225.4 1518.6Q3222.6 1518.6 3217 1522.8L3259 1564.8Q3240.8 1559.2 3190.4 1514.4Q3184.8 1518.6 3172.2 1522.8Q3190.4 1553.6 3190.4 1560.6Q3190.4 1564.8 3184.8 1570.4Q3180.6 1560.6 3165.2 1542.4L3135.8 1514.4Q3119 1497.6 3086.8 1485Q3084 1490.6 3078.4 1496.2Q3079.8 1499 3089.6 1508.8Q3098 1508.8 3114.8 1528.4Q3123.2 1538.2 3128.8 1543.8Q3107.8 1528.4 3102.2 1528.4Q3099.4 1528.4 3098 1529.8L3093.8 1529.8Q3079.8 1529.8 3061.6 1517.2Q3056 1510.2 3046.2 1499Q3046.2 1497.6 3040.6 1497.6Q3035 1496.2 3033.6 1493.4Q3028 1487.8 3000 1447.2Q2997.2 1444.4 2941.2 1375.8Q2935.6 1370.2 2911.8 1340.8L2911.8 1335.2Q2892.2 1319.8 2874 1265.2Q2868.4 1259.6 2860 1242.8Q2854.4 1244.2 2854.4 1261Q2844.6 1261 2809.6 1308.6Q2811 1311.4 2808.2 1319.8Q2798.4 1329.6 2784.4 1356.2Q2785.8 1359 2788.6 1359Q2784.4 1363.2 2778.8 1363.2Q2781.6 1370.2 2764.8 1391.2Q2764.8 1389.8 2766.2 1388.4Q2767.6 1385.6 2767.6 1384.2Q2766.2 1381.4 2762 1381.4Q2763.4 1389.8 2762 1405.2Q2762 1408 2763.4 1408Q2757.8 1412.2 2749.4 1424.8Q2749.4 1398.2 2752.2 1405.2Q2724.2 1461.2 2721.4 1465.4Q2704.6 1468.2 2700.4 1468.2Q2690.6 1471 2685 1479.4Q2685 1480.8 2689.2 1482.2Q2693.4 1494.8 2693.4 1501.8Q2693.4 1521.4 2648.6 1549.4Q2641.6 1553.6 2610.8 1581.6Q2602.4 1585.8 2588.4 1598.4Q2589.8 1588.6 2588.4 1588.6Q2585.6 1588.6 2578.6 1594.2Q2573 1598.4 2570.2 1598.4Q2557.6 1598.4 2553.4 1601.2L2547.8 1595.6Q2554.8 1583 2571.6 1576L2564.6 1583L2568.8 1587.2Q2661.2 1553.6 2668.2 1496.2Q2664 1492 2658.4 1492Q2657 1492 2652.8 1493.4Q2650 1494.8 2648.6 1494.8Q2641.6 1493.4 2609.4 1480.8L2575.8 1455.6Q2568.8 1455.6 2568.8 1462.6Q2568.8 1480.8 2581.4 1499L2575.8 1504.6Q2561.8 1499 2553.4 1458.4Q2554.8 1454.2 2560.4 1448.6Q2547.8 1427.6 2547.8 1431.8L2567.4 1406.6Q2566 1405.2 2557.6 1405.2Q2540.8 1405.2 2526.8 1419.2Q2525.4 1422 2529.6 1430.4Q2521.2 1431.8 2505.8 1437.4Q2507.2 1436 2508.6 1433.2Q2511.4 1429 2512.8 1427.6Q2500.2 1417.8 2500.2 1410.8Q2503 1406.6 2515.6 1389.8Q2515.6 1388.4 2512.8 1385.6Q2542.2 1380 2546.4 1363.2Q2543.6 1363.2 2539.4 1361.8Q2536.6 1360.4 2533.8 1360.4Q2526.8 1360.4 2526.8 1377.2L2517 1377.2Q2517 1375.8 2515.6 1374.4L2515.6 1368.8Q2517 1363.2 2524 1339.4Q2515.6 1335.2 2498.8 1328.2Q2508.6 1328.2 2515.6 1332.4Q2518.4 1328.2 2525.4 1308.6L2533.8 1308.6Q2552 1286.2 2549.2 1276.4Q2557.6 1263.8 2580 1234.4Q2584.2 1231.6 2592.6 1227.4Q2599.6 1217.6 2613.6 1186.8Q2633.2 1177 2637.4 1151.8Q2640.2 1151.8 2643 1153.2Q2644.4 1151.8 2654.2 1130.8Q2661.2 1114 2669.6 1114Q2672.4 1114 2672.4 1116.8Q2672.4 1118.2 2673.8 1118.2Q2680.8 1112.6 2685 1100Q2692 1100 2697.6 1083.2Q2699 1083.2 2701.8 1084.6Q2711.6 1070.6 2710.2 1066.4Q2715.8 1065 2725.6 1059.4Q2725.6 1052.4 2760.6 1009Q2732.6 950.2 2715.8 898.4Q2658.4 722 2658.4 703.8Q2658.4 699.6 2659.8 698.2Q2662.6 695.4 2662.6 694L2687.8 765.4Q2690.6 762.6 2687.8 759.8Q2685 726.2 2661.2 660.4Q2658.4 660.4 2658.4 667.4Q2657 667.4 2654.2 664.6Q2652.8 660.4 2651.4 660.4Q2655.6 653.4 2661.2 645Q2662.6 636.6 2654.2 617Q2661.2 611.4 2661.2 601.6Q2661.2 607.2 2641.6 558.2L2675.2 540Q2675.2 524.6 2666.8 524.6Q2658.4 524.6 2658.4 538.6Q2633.2 526 2633.2 510.6Q2633.2 489.6 2650 489.6Q2665.4 489.6 2671 495.2Q2668.2 507.8 2669.6 510.6Q2673.8 510.6 2679.4 503.6Q2678 498 2675.2 489.6Q2683.6 482.6 2699 477Q2700.4 479.8 2700.4 493.8Q2703.2 493.8 2707.4 498Q2708.8 496.6 2708.8 492.4Q2711.6 493.8 2715.8 498Q2722.8 492.4 2734 478.4Q2741 478.4 2748 471.4Q2742.4 458.8 2739.6 458.8Q2735.4 460.2 2720 464.4L2724.2 470Q2722.8 470 2718.6 472.8Q2718.6 465.8 2717.2 465.8Q2714.4 465.8 2710.2 470Q2704.6 470 2697.6 449Q2693.4 436.4 2693.4 433.6Q2693.4 407 2724.2 407Q2750.8 407 2771.8 439.2Q2774.6 443.4 2801.2 495.2Q2815.2 530.2 2820.8 544.2Q2826.4 556.8 2907.6 783.6L2911.8 787.8Q2941.2 765.4 2997.2 720.6Q2990.2 727.6 2987.4 741.6Q2986 741.6 2981.8 738.8Q2979 744.4 2974.8 754.2Q2970.6 757 2959.4 766.8L2959.4 775.2Q2958 776.6 2963.6 776.6Q2965 776.6 3000 747.2Q3036.4 717.8 3042 715L3046.2 720.6Q3081.2 691.2 3142.8 643.6Q3149.8 642.2 3162.4 635.2Q3166.6 628.2 3175 615.6Q3177.8 614.2 3182 614.2Q3226.8 572.2 3336 458.8Q3345.8 446.2 3366.8 418.2Q3358.4 430.8 3338.8 461.6Q3338.8 463 3340.2 465.8Q3358.4 457.4 3393.4 422.4Q3428.4 386 3446.6 377.6L3449.4 379Q3428.4 400 3415.8 415.4Q3413 418.2 3368.2 488.2L3371 491Q3379.4 484 3394.8 475.6Q3394.8 478.4 3399 482.6Q3408.8 474.2 3427 454.6Q3413 482.6 3396.2 513.4Q3399 513.4 3400.4 510.6Q3411.6 492.4 3432.6 461.6Q3436.8 458.8 3446.6 449Q3450.8 443.4 3460.6 430.8L3455 440.6Q3453.6 442 3456.4 444.8Q3463.4 433.6 3480.2 416.8ZM3245 1529.8L3267.4 1545.2L3264.6 1548L3242.2 1532.6L3245 1529.8ZM3159.6 1563.4Q3159.6 1570.4 3149.8 1574.6L3140 1574.6Q3137.2 1571.8 3137.2 1567.6Q3137.2 1563.4 3144.2 1556.4L3155.4 1556.4Q3155.4 1559.2 3159.6 1563.4ZM3383.6 509.2L3389.2 502.2L3386.4 500.8L3380.8 506.4L3383.6 509.2ZM3352.8 736Q3340.2 748.6 3345.8 748.6Q3352.8 748.6 3352.8 736ZM3239.4 587.6Q3232.4 594.6 3215.6 610Q3214.2 618.4 3210 628.2Q3180.6 653.4 3162.4 671.6L3168 677.2L3215.6 632.4Q3215.6 626.8 3219.8 617L3225.4 621.2L3233.8 605.8Q3239.4 593.2 3239.4 587.6ZM3289.8 755.6L3295.4 750L3292.6 747.2L3287 752.8L3289.8 755.6ZM3252 748.6L3257.6 743L3254.8 740.2L3249.2 745.8L3252 748.6ZM3285.6 755.6Q3261.8 772.4 3208.6 818.6Q3172.2 836.8 3168 853.6Q3214.2 818.6 3285.6 755.6ZM3166.6 899.8Q3159.6 902.6 3092.4 958.6Q3093.8 961.4 3095.2 965.6Q3140 926.4 3166.6 899.8ZM3112 965.6L3117.6 962.8L3116.2 960L3112 962.8L3112 965.6ZM3088.2 969.8L3092.4 969.8L3092.4 960L3088.2 960L3088.2 969.8ZM3023.8 1051L3030.8 1048.2L3029.4 1044L3023.8 1046.8L3023.8 1051ZM2690.6 776.6L2694.8 776.6L2692 765.4L2687.8 765.4L2690.6 776.6ZM2711.6 811.6L2715.8 811.6L2715.8 804.6L2711.6 804.6L2711.6 811.6ZM2697.6 799L2701.8 799L2699 789.2L2694.8 789.2L2697.6 799ZM2706 807.4L2707.4 803.2Q2706 803.2 2701.8 800.4Q2701.8 801.8 2703.2 807.4Q2704.6 813 2704.6 815.8Q2704.6 811.6 2706 807.4ZM2771.8 988L2722.8 832.6L2715.8 839.6Q2711.6 835.4 2711.6 832.6L2763.4 1002Q2771.8 995 2771.8 988Z" />
</svg>